<svg width="16" height="16" viewBox="0 0 16 16" fill="none" xmlns="http://www.w3.org/2000/svg">
<path d="M4.6861 7.99997C4.6861 6.16987 6.16969 4.68628 7.99979 4.68628C9.82989 4.68628 11.3135 6.16987 11.3135 7.99997C11.3135 9.83007 9.82989 11.3137 7.99979 11.3137C6.16969 11.3137 4.6861 9.83007 4.6861 7.99997Z" fill="white"/>
<path d="M1.17151 3.51458C0.52447 2.86754 0.524472 1.81849 1.17151 1.17145C1.81855 0.524412 2.86761 0.524412 3.51464 1.17145L15.0388 12.6956C15.6858 13.3426 15.6858 14.3917 15.0388 15.0387C14.3917 15.6857 13.3427 15.6857 12.6956 15.0387L1.17151 3.51458Z" fill="white"/>
<path d="M3.31369 0C5.14379 7.99963e-08 6.62738 1.48359 6.62738 3.31369C6.62738 5.14379 5.14379 6.62738 3.31369 6.62738C1.48359 6.62738 -7.99963e-08 5.14379 0 3.31369C7.99963e-08 1.48359 1.48359 -7.99963e-08 3.31369 0Z" fill="#0051FF"/>
<path d="M12.6863 9.37256C14.5164 9.37256 15.9999 10.8561 15.9999 12.6863C15.9999 14.5164 14.5164 15.9999 12.6863 15.9999C10.8561 15.9999 9.37256 14.5164 9.37256 12.6863C9.37256 10.8561 10.8561 9.37256 12.6863 9.37256Z" fill="#0051FF"/>
</svg>
